<svg width="22" height="22" viewBox="0 0 22 22" fill="none" xmlns="http://www.w3.org/2000/svg">
<g clip-path="url(#clip0_2100_460)">
<path d="M15.3751 0.0109944C15.3284 -0.0412556 13.644 0.0316194 12.1783 1.62249C10.7125 3.21199 10.938 5.03524 10.971 5.08199C11.004 5.12874 13.061 5.20162 14.3741 3.35224C15.6873 1.50287 15.4219 0.0646194 15.3751 0.0109944ZM19.9319 16.1439C19.8659 16.0119 16.735 14.4471 17.0265 11.4386C17.318 8.43012 19.3296 7.60374 19.3613 7.51437C19.3929 7.42499 18.5404 6.42812 17.637 5.92349C16.9736 5.56806 16.2396 5.36424 15.4879 5.32674C15.3394 5.32262 14.8238 5.19612 13.7636 5.48624C13.0651 5.67737 11.4908 6.29612 11.0576 6.32087C10.6231 6.34562 9.33065 5.60312 7.94052 5.40649C7.0509 5.23462 6.10765 5.58662 5.43252 5.85749C4.75877 6.127 3.47727 6.89424 2.58077 8.93337C1.68427 10.9711 2.15315 14.1996 2.48865 15.2034C2.82415 16.2071 3.34802 17.8489 4.23902 19.0479C5.03102 20.4009 6.08152 21.34 6.52015 21.659C6.95877 21.978 8.19627 22.1897 9.05427 21.7511C9.74452 21.3276 10.9903 21.0842 11.4825 21.1021C11.9734 21.12 12.9414 21.3139 13.9328 21.8432C14.7179 22.1141 15.4604 22.0014 16.2043 21.6989C16.9481 21.395 18.0248 20.2427 19.2815 17.9066C19.7582 16.8204 19.975 16.2328 19.9319 16.1439Z" fill="black"/>
<path d="M15.3751 0.0109944C15.3284 -0.0412556 13.644 0.0316194 12.1783 1.62249C10.7125 3.21199 10.938 5.03524 10.971 5.08199C11.004 5.12874 13.061 5.20162 14.3741 3.35224C15.6873 1.50287 15.4219 0.0646194 15.3751 0.0109944ZM19.9319 16.1439C19.8659 16.0119 16.735 14.4471 17.0265 11.4386C17.318 8.43012 19.3296 7.60374 19.3613 7.51437C19.3929 7.42499 18.5404 6.42812 17.637 5.92349C16.9736 5.56806 16.2396 5.36424 15.4879 5.32674C15.3394 5.32262 14.8238 5.19612 13.7636 5.48624C13.0651 5.67737 11.4908 6.29612 11.0576 6.32087C10.6231 6.34562 9.33065 5.60312 7.94052 5.40649C7.0509 5.23462 6.10765 5.58662 5.43252 5.85749C4.75877 6.127 3.47727 6.89424 2.58077 8.93337C1.68427 10.9711 2.15315 14.1996 2.48865 15.2034C2.82415 16.2071 3.34802 17.8489 4.23902 19.0479C5.03102 20.4009 6.08152 21.34 6.52015 21.659C6.95877 21.978 8.19627 22.1897 9.05427 21.7511C9.74452 21.3276 10.9903 21.0842 11.4825 21.1021C11.9734 21.12 12.9414 21.3139 13.9328 21.8432C14.7179 22.1141 15.4604 22.0014 16.2043 21.6989C16.9481 21.395 18.0248 20.2427 19.2815 17.9066C19.7582 16.8204 19.975 16.2328 19.9319 16.1439Z" fill="black"/>
</g>
<defs>
<clipPath id="clip0_2100_460">
<rect width="22" height="22" fill="white"/>
</clipPath>
</defs>
</svg>
