<svg width="23" height="22" viewBox="0 0 23 22" fill="none" xmlns="http://www.w3.org/2000/svg">
<path d="M20.4883 9.20472H19.7499V9.16668H11.4999V12.8333H16.6805C15.9247 14.9678 13.8938 16.5 11.4999 16.5C8.46254 16.5 5.99992 14.0374 5.99992 11C5.99992 7.96264 8.46254 5.50001 11.4999 5.50001C12.902 5.50001 14.1775 6.02893 15.1487 6.89289L17.7415 4.30009C16.1043 2.7743 13.9144 1.83334 11.4999 1.83334C6.43763 1.83334 2.33325 5.93772 2.33325 11C2.33325 16.0623 6.43763 20.1667 11.4999 20.1667C16.5622 20.1667 20.6666 16.0623 20.6666 11C20.6666 10.3854 20.6033 9.78543 20.4883 9.20472Z" fill="#FFC107"/>
<path d="M3.39014 6.73339L6.40184 8.94209C7.21676 6.92451 9.19035 5.50001 11.4999 5.50001C12.9019 5.50001 14.1775 6.02893 15.1487 6.89289L17.7415 4.30009C16.1043 2.7743 13.9144 1.83334 11.4999 1.83334C7.97897 1.83334 4.92555 3.82114 3.39014 6.73339Z" fill="#FF3D00"/>
<path d="M11.5 20.1667C13.8677 20.1667 16.0191 19.2606 17.6458 17.787L14.8087 15.3863C13.8574 16.1097 12.6951 16.501 11.5 16.5C9.11573 16.5 7.09127 14.9797 6.32861 12.8581L3.33936 15.1612C4.85644 18.1298 7.93736 20.1667 11.5 20.1667Z" fill="#4CAF50"/>
<path d="M20.4884 9.2047H19.75V9.16666H11.5V12.8333H16.6805C16.319 13.8492 15.6678 14.7369 14.8073 15.3867L14.8087 15.3858L17.6458 17.7865C17.445 17.9689 20.6667 15.5833 20.6667 11C20.6667 10.3854 20.6034 9.78541 20.4884 9.2047Z" fill="#1976D2"/>
</svg>
